<svg width="14" height="16" viewBox="0 0 14 16" fill="none" xmlns="http://www.w3.org/2000/svg">
<path d="M1.87414 6.61505C1.80712 5.74386 2.49595 5 3.36971 5H10.63C11.5039 5 12.1927 5.74385 12.1257 6.61505L11.6064 13.365C11.5463 14.1465 10.8946 14.75 10.1108 14.75H3.88894C3.10514 14.75 2.45348 14.1465 2.39336 13.365L1.87414 6.61505Z" stroke="#CDCDCD"/>
<path d="M12.625 2.75H1.375" stroke="#CDCDCD" stroke-linecap="round"/>
<path d="M5.5 1.25C5.5 0.83579 5.83577 0.5 6.25 0.5H7.75C8.16422 0.5 8.5 0.83579 8.5 1.25V2.75H5.5V1.25Z" stroke="#CDCDCD"/>
<path d="M8.5 8V11.75" stroke="#CDCDCD" stroke-linecap="round"/>
<path d="M5.5 8V11.75" stroke="#CDCDCD" stroke-linecap="round"/>
</svg>
