<svg width="199" height="166" viewBox="0 0 199 166" fill="none" xmlns="http://www.w3.org/2000/svg">
<path d="M100.934 163.852C142.422 162.978 175.917 155.771 175.748 147.756C175.578 139.741 141.808 133.952 100.319 134.827C58.8311 135.702 25.3357 142.908 25.5053 150.923C25.6749 158.939 59.4453 164.727 100.934 163.852Z" fill="#6C63FF" fill-opacity="0.1"/>
<path opacity="0.7" d="M100.934 163.852C142.422 162.978 175.917 155.771 175.748 147.756C175.578 139.741 141.808 133.952 100.319 134.827C58.8311 135.702 25.3357 142.908 25.5053 150.923C25.6749 158.939 59.4453 164.727 100.934 163.852Z" fill="white" fill-opacity="0.1"/>
<path d="M183.922 100.925C183.922 100.925 207.611 78.6125 194.595 48.9844C190.98 40.7518 185.132 33.6964 177.86 28.3915C161.561 16.5204 120.353 -6.96701 58.3486 2.10385C51.6882 3.05289 45.3157 5.4416 39.6758 9.10319C30.5755 15.063 20.929 26.0091 25.0311 44.7751C26.4811 51.3999 26.1543 58.3177 23.7548 64.6699C21.3859 70.966 16.8983 78.6838 8.546 87.0132C8.546 87.0132 -9.25122 104.174 8.06354 119.026C11.7634 122.167 16.1388 124.414 20.8499 125.592C42.448 131.104 129.744 149.409 183.922 100.925Z" fill="#6C63FF" fill-opacity="0.1"/>
<path opacity="0.7" d="M183.922 100.925C183.922 100.925 207.611 78.6125 194.595 48.9844C190.98 40.7518 185.132 33.6964 177.86 28.3915C161.561 16.5204 120.353 -6.96701 58.3486 2.10385C51.6882 3.05289 45.3157 5.4416 39.6758 9.10319C30.5755 15.063 20.929 26.0091 25.0311 44.7751C26.4811 51.3999 26.1543 58.3177 23.7548 64.6699C21.3859 70.966 16.8983 78.6838 8.546 87.0132C8.546 87.0132 -9.25122 104.174 8.06354 119.026C11.7634 122.167 16.1388 124.414 20.8499 125.592C42.448 131.104 129.744 149.409 183.922 100.925Z" fill="white" fill-opacity="0.1"/>
<path d="M60.495 153.279C60.495 153.279 61.4497 154.346 61.437 154.741C60.1126 155.043 58.7666 155.239 57.4114 155.33C55.6092 155.404 52.8881 154.729 52.4107 154.51C51.9334 154.29 52.0712 153.687 52.0712 153.687C52.0712 153.687 53.5492 153.019 54.6239 153.024C55.6986 153.029 58.6877 153.23 60.495 153.279Z" fill="#F1F1F1"/>
<path d="M62.328 154.66C62.328 154.66 61.9987 153.697 61.3555 153.248C61.3555 153.248 63.5712 152.874 64.5744 153.608C65.5776 154.341 63.2189 154.578 62.328 154.66Z" fill="#F1F1F1"/>
<path d="M74.8389 150.779C74.8389 150.779 75.7042 149.76 75.6557 149.358C74.3028 149.018 72.9265 148.78 71.5383 148.644C69.7105 148.509 67.0251 149.087 66.5631 149.291C66.1011 149.495 66.3078 150.099 66.3078 150.099C66.3078 150.099 67.8599 150.812 68.9371 150.843C70.0143 150.874 73.0163 150.759 74.8389 150.779Z" fill="#F1F1F1"/>
<path d="M76.5567 149.467C76.5567 149.467 76.3014 150.415 75.7041 150.838C75.7041 150.838 77.9734 151.286 78.9205 150.583C79.8675 149.88 77.468 149.579 76.5567 149.467Z" fill="#F1F1F1"/>
<path d="M32.9722 152.632V151.358C33.3274 151.407 33.6668 151.536 33.9652 151.735C34.6212 152.211 33.8426 152.481 32.9722 152.632Z" fill="#F1F1F1"/>
<path d="M43.4278 150.601C43.4278 150.601 44.209 149.508 44.1273 149.118C42.7508 148.888 41.3593 148.758 39.9639 148.731C38.1336 148.731 35.5018 149.538 35.0602 149.778C34.6186 150.017 34.8585 150.603 34.8585 150.603C34.8585 150.603 36.4642 151.19 37.5388 151.133C38.6135 151.077 41.6103 150.728 43.4278 150.601Z" fill="#F1F1F1"/>
<path d="M45.0386 149.154C45.0386 149.154 44.8727 150.117 44.2983 150.588C44.2983 150.588 46.5957 150.843 47.4866 150.079C48.3775 149.314 45.9525 149.194 45.0386 149.154Z" fill="#F1F1F1"/>
<path d="M90.0422 154.102C90.0422 154.102 91.0633 155.096 91.0914 155.49C89.7925 155.889 88.4645 156.186 87.1194 156.38C85.3325 156.586 82.5603 156.125 82.0702 155.931C81.5801 155.738 81.6695 155.136 81.6695 155.136C81.6695 155.136 83.0939 154.372 84.1583 154.285C85.2228 154.199 88.2349 154.196 90.0422 154.102Z" fill="#F1F1F1"/>
<path d="M91.9721 155.345C91.9721 155.345 91.5714 154.408 90.8975 154.01C90.8975 154.01 93.0774 153.47 94.1342 154.127C95.1911 154.785 92.8554 155.198 91.9721 155.345Z" fill="#F1F1F1"/>
<path d="M103.464 151.35C103.464 151.35 104.391 150.374 104.365 149.979C103.035 149.558 101.675 149.236 100.296 149.016C98.4814 148.761 95.7653 149.194 95.2931 149.368C94.8208 149.541 94.9791 150.158 94.9791 150.158C94.9791 150.158 96.4852 150.963 97.5598 151.057C98.6345 151.151 101.647 151.223 103.464 151.35Z" fill="#F1F1F1"/>
<path d="M105.264 150.142C105.264 150.142 104.963 151.075 104.33 151.46C104.33 151.46 106.571 152.041 107.556 151.404C108.541 150.767 106.168 150.308 105.264 150.142Z" fill="#F1F1F1"/>
<path d="M118.908 153.279C118.908 153.279 119.86 154.346 119.85 154.741C118.525 155.043 117.178 155.24 115.822 155.33C114.02 155.404 111.296 154.729 110.819 154.51C110.341 154.29 110.482 153.687 110.482 153.687C110.482 153.687 111.957 153.019 113.034 153.024C114.112 153.029 117.098 153.23 118.908 153.279Z" fill="#F1F1F1"/>
<path d="M120.738 154.66C120.738 154.66 120.409 153.697 119.766 153.248C119.766 153.248 121.981 152.874 122.987 153.608C123.993 154.341 121.629 154.578 120.738 154.66Z" fill="#F1F1F1"/>
<path d="M132.46 152.466C132.46 152.466 133.241 151.37 133.162 150.981C131.785 150.75 130.392 150.621 128.996 150.593C127.166 150.609 124.536 151.401 124.092 151.64C123.648 151.88 123.893 152.466 123.893 152.466C123.893 152.466 125.496 153.052 126.571 152.996C127.646 152.94 130.63 152.601 132.46 152.466Z" fill="#F1F1F1"/>
<path d="M134.061 151.029C134.061 151.029 133.892 151.992 133.32 152.464C133.32 152.464 135.618 152.718 136.506 151.954C137.394 151.19 134.972 151.067 134.061 151.029Z" fill="#F1F1F1"/>
<path d="M147.684 154.216C147.684 154.216 148.639 155.282 148.626 155.679C147.301 155.979 145.954 156.176 144.598 156.268C142.796 156.342 140.072 155.666 139.598 155.445C139.123 155.223 139.258 154.622 139.258 154.622C139.258 154.622 140.736 153.954 141.811 153.959C142.885 153.964 145.875 154.173 147.684 154.216Z" fill="#F1F1F1"/>
<path d="M149.517 155.597C149.517 155.597 149.188 154.632 148.542 154.186C148.542 154.186 150.758 153.811 151.763 154.545C152.769 155.279 150.405 155.524 149.517 155.597Z" fill="#F1F1F1"/>
<path d="M160.616 151.74V153.46C158.799 153.608 156.3 153.895 155.337 153.941C154.26 153.997 152.657 153.414 152.657 153.414C152.657 153.414 152.402 152.828 152.859 152.588C153.316 152.349 155.922 151.554 157.762 151.541C158.717 151.549 159.67 151.615 160.616 151.74Z" fill="#F1F1F1"/>
<path d="M149.976 149.352C149.999 148.28 149.826 147.213 149.466 146.203C149.287 145.694 143.301 147.956 142.717 148.147C140.741 148.8 139.283 149.944 137.581 151.162C136.774 151.74 135.955 152.326 135.028 152.657C134.101 152.988 132.986 153.057 132.016 153.394C131.046 153.73 130.078 154.471 129.974 155.501C132.036 156.158 134.262 156.658 136.355 156.089C138.377 155.541 140.001 154.074 141.854 153.101C143.142 152.445 144.517 151.976 145.938 151.709C145.938 152.109 145.958 152.512 145.971 152.912C147.023 152.911 148.07 152.761 149.08 152.466C149.214 152.436 149.34 152.377 149.448 152.293C149.549 152.188 149.622 152.06 149.662 151.921C149.957 151.099 150.065 150.221 149.976 149.352Z" fill="#6C63FF"/>
<path d="M105.146 147.584C104.25 147.584 103.308 147.548 102.509 147.959C101.534 148.468 100.978 149.487 100.49 150.473C106.479 151.592 112.667 150.871 118.236 148.407C118.285 148.97 118.211 149.537 118.019 150.068C119.486 150.219 120.962 150.267 122.436 150.211C122.592 150.218 122.749 150.188 122.892 150.124C123.063 150.013 123.195 149.852 123.27 149.663C123.662 148.886 123.933 148.055 124.074 147.197C124.147 146.9 124.13 146.589 124.026 146.302C123.824 145.966 123.496 145.723 123.115 145.627C120.544 144.718 117.769 145.831 115.265 146.435C111.952 147.231 108.554 147.617 105.146 147.584Z" fill="#6C63FF"/>
<path d="M94.494 88.3534C91.96 88.2821 89.4261 88.2651 86.8921 88.3025C86.5896 88.2701 86.2863 88.355 86.0446 88.5394C85.7894 88.807 85.8302 89.2401 85.9349 89.5994C86.4199 91.2683 88.3905 93.8571 90.3893 93.2558C92.4518 92.6392 94.0779 90.374 94.494 88.3534Z" fill="#F7A48B"/>
<path d="M81.2639 85.3698L92.0336 93.6533C92.1492 93.7425 92.2438 93.8559 92.3107 93.9855C92.3777 94.1151 92.4154 94.2577 92.4213 94.4034C92.4271 94.5491 92.4009 94.6943 92.3445 94.8289C92.2882 94.9634 92.2029 95.0839 92.0949 95.1821C91.9164 95.3448 91.685 95.4376 91.4433 95.4432C91.2017 95.4488 90.9661 95.3669 90.7803 95.2126L80.2837 86.5036L81.2639 85.3698Z" fill="#252525"/>
<path d="M95.5178 84.9824C94.5887 85.3009 93.3072 85.6653 92.4878 86.208C91.6684 86.7507 90.9333 85.5812 90.096 85.3315C89.2 85.0767 88.4087 85.2576 87.4897 85.3901C86.3333 85.5583 85.468 86.1545 84.5311 86.8603C83.5879 87.5652 82.511 88.0715 81.3658 88.3483C80.7609 90.323 85.5854 88.8707 86.198 88.7586C86.849 88.6388 87.3238 88.6108 87.9364 88.8987C89.3787 89.579 90.0143 89.7115 91.6684 89.5586C92.7074 90.2389 94.022 90.7715 95.1094 89.6402C95.7297 88.9955 96.8963 88.3662 97.4196 87.6986C97.7208 87.3036 97.7514 87.5712 97.4477 86.8323C97.0699 85.9048 96.3526 85.5099 95.5178 84.9824Z" fill="#F9B499"/>
<path d="M85.7715 88.5776C85.1257 89.0872 84.2144 89.421 83.3975 89.7803C83.2829 89.8291 83.1863 89.9125 83.1213 90.0187C83.0562 90.1248 83.026 90.2486 83.0347 90.3728C83.0434 90.4969 83.0906 90.6153 83.1698 90.7114C83.2491 90.8075 83.3563 90.8766 83.4767 90.909C84.9011 91.2836 88.1276 89.8644 87.8162 88.3483C87.3108 88.1088 86.2004 88.2362 85.7715 88.5776Z" fill="#F9B499"/>
<path d="M84.6254 90.5498C84.3038 91.0136 84.2093 92.0022 84.6254 92.4328C85.9528 93.8036 88.2604 91.5945 89.0058 90.6008C90.4991 88.6083 88.1481 89.072 86.9994 89.602C86.3204 89.9001 85.5367 90.2186 84.6254 90.5498Z" fill="#F9B499"/>
<path d="M85.8562 92.2569C85.7643 95.4394 90.8748 92.471 90.451 90.4173C90.1038 88.7662 88.6207 90.5217 88.1051 90.9141C87.5895 91.3065 86.1217 91.5945 85.8562 92.2569Z" fill="#F9B499"/>
<path d="M87.8188 93.0749C88.6025 95.3069 91.778 92.7564 91.4232 91.0365C91.2752 90.323 90.8642 90.0428 90.2107 90.5855C89.8661 90.8734 89.7206 91.3805 89.4219 91.7117C89.016 92.1754 87.8342 92.4685 87.8188 93.0749Z" fill="#F9B499"/>
<path d="M80.8092 86.8501C80.8092 86.8501 65.1026 85.413 59.9487 72.8107L61.7356 69.9161C61.7356 69.9161 73.8991 70.6602 81.6286 85.5889L80.8092 86.8501Z" fill="#6C63FF"/>
<path d="M61.4956 73.1597C61.4956 73.1597 70.9405 76.3396 78.7338 85.3212C78.7363 85.3212 66.2232 82.8599 61.4956 73.1597Z" fill="#E5E5E5"/>
<g opacity="0.3">
<path d="M66.8997 72.1176C66.3662 71.8628 65.8097 71.6309 65.2175 71.4143L64.0815 73.2667C64.661 73.4782 65.2558 73.705 65.8684 73.947L66.8997 72.1176Z" fill="white"/>
<path d="M67.4152 72.3749L66.3584 74.1585C67.7823 74.7396 69.167 75.4119 70.5039 76.1714L71.0528 74.9229C69.9524 73.9242 68.7302 73.0681 67.4152 72.3749Z" fill="white"/>
<path d="M71.5557 76.811C72.1307 77.1781 72.6846 77.5771 73.2149 78.006L73.6284 77.4964C73.0822 76.8951 72.5589 76.3498 72.0432 75.8428L71.5557 76.811Z" fill="white"/>
</g>
<path d="M100.595 88.4146C99.7347 88.8656 98.729 89.0796 97.8713 89.5281C97.0749 87.7475 96.0735 86.0655 94.8872 84.5162L97.0289 83.26C98.1368 84.9748 99.4897 86.6998 100.595 88.4146Z" fill="white"/>
<path d="M128.476 100.421C121.389 104.033 113.278 105.118 105.489 103.496C106.357 96.428 105.422 89.2784 104.493 82.2179C103.62 75.6152 102.749 69.0142 101.879 62.4148C101.519 59.691 100.373 56.7277 100.164 53.9886C99.9545 51.2495 101.019 48.062 103.612 47.1422C105.91 46.3268 108.429 47.6059 110.331 49.1398C116.802 54.3581 120.031 62.5346 122.454 70.4793C125.405 80.1413 127.112 90.4097 128.476 100.421Z" fill="#6C63FF"/>
<path opacity="0.2" d="M128.476 100.421C121.389 104.033 113.278 105.118 105.489 103.496C106.357 96.428 105.422 89.2784 104.493 82.2179C103.62 75.6152 102.749 69.0142 101.879 62.4148C101.519 59.691 100.373 56.7277 100.164 53.9886C99.9545 51.2495 101.019 48.062 103.612 47.1422C105.91 46.3268 108.429 47.6059 110.331 49.1398C116.802 54.3581 120.031 62.5346 122.454 70.4793C125.405 80.1413 127.112 90.4097 128.476 100.421Z" fill="black"/>
<path d="M124.922 89.3319C123.039 97.8805 121.906 106.577 121.535 115.321C121.417 118.068 121.376 120.825 121.047 123.554C120.613 127.154 119.687 130.688 118.763 134.182C117.741 138.089 116.712 141.996 115.674 145.902C117.736 146.476 119.836 146.902 121.959 147.176C123.515 147.387 125.09 147.415 126.653 147.261C130.975 146.751 134.852 144.137 139.186 143.757C139.163 136.666 139.141 129.57 138.753 122.489C138.472 117.503 138.016 112.531 137.384 107.57C136.899 103.782 136.302 99.9927 135.263 96.316C134.811 94.7209 134.257 93.1131 133.221 91.8086C131.421 89.5154 127.725 88.4962 124.922 89.3319Z" fill="#252525"/>
<path opacity="0.2" d="M124.922 89.3319C123.039 97.8805 121.906 106.577 121.535 115.321C121.417 118.068 121.376 120.825 121.047 123.554C120.613 127.154 119.687 130.688 118.763 134.182C117.741 138.089 116.712 141.996 115.674 145.902C117.736 146.476 119.836 146.902 121.959 147.176C123.515 147.387 125.09 147.415 126.653 147.261C130.975 146.751 134.852 144.137 139.186 143.757C139.163 136.666 139.141 129.57 138.753 122.489C138.472 117.503 138.016 112.531 137.384 107.57C136.899 103.782 136.302 99.9927 135.263 96.316C134.811 94.7209 134.257 93.1131 133.221 91.8086C131.421 89.5154 127.725 88.4962 124.922 89.3319Z" fill="black"/>
<path opacity="0.2" d="M137.841 111.403C137.7 110.123 137.548 108.849 137.384 107.581C136.899 103.792 136.302 100.003 135.263 96.3261C134.811 94.731 134.257 93.1233 133.221 91.8187C131.414 89.5255 127.717 88.5063 124.914 89.342C124.011 93.4494 123.28 97.5907 122.722 101.766C126.964 106.075 132.19 109.201 137.841 111.403Z" fill="black"/>
<path d="M154.385 144.86L149.415 147.067C148.491 147.477 147.567 147.887 146.607 148.213C144.289 149.008 141.824 149.282 139.388 149.016C138.523 146.213 137.657 143.41 136.789 140.608C136.169 138.602 135.549 136.595 135.128 134.541C134.591 131.942 134.377 129.287 134.163 126.642L132.47 105.675C137.831 100.523 143.727 96.6217 150.709 94.0635C151.368 93.8087 152.075 93.5921 152.751 93.745C154.204 99.9294 154.249 106.361 152.881 112.564C152.427 114.603 151.827 116.621 151.559 118.695C151.123 122.074 151.577 125.496 152.034 128.869C152.726 134.039 153.688 139.69 154.385 144.86Z" fill="#252525"/>
<path opacity="0.2" d="M152.641 113.568C152.723 113.235 152.802 112.901 152.876 112.565C154.25 106.362 154.211 99.9308 152.764 93.745C152.08 93.5922 151.373 93.8215 150.722 94.0635C143.74 96.6115 137.838 100.523 132.483 105.675L132.993 111.981C139.431 112.987 146.068 113.719 152.641 113.568Z" fill="black"/>
<path d="M112.72 74.3318C113.371 79.4737 112.536 85.3315 109.562 86.817C106.589 88.3025 103.127 88.8554 99.8342 89.2987C98.5324 87.2094 97.1897 85.3162 95.8853 83.2269C99.3722 80.1948 104.59 77.5448 105.409 73.0018C105.994 69.7338 105.861 66.3781 105.019 63.1665C108.623 68.6931 109.662 68.4765 112.72 74.3318Z" fill="#252525"/>
<path opacity="0.2" d="M112.72 74.3318C113.371 79.4737 112.536 85.3315 109.562 86.817C106.589 88.3025 103.127 88.8554 99.8342 89.2987C98.5324 87.2094 97.1897 85.3162 95.8853 83.2269C99.3722 80.1948 104.59 77.5448 105.409 73.0018C105.994 69.7338 105.861 66.3781 105.019 63.1665C108.623 68.6931 109.662 68.4765 112.72 74.3318Z" fill="black"/>
<path d="M124.07 84.8703C122.283 86.5953 119.768 87.4565 117.282 87.3979C115.204 81.721 111.625 76.7422 108.391 71.631C105.157 66.5197 102.18 61.0211 101.542 55.0104C101.381 53.4816 100.194 52.126 100.072 50.5922C99.9494 49.0583 100.475 47.374 101.764 46.5154C103.053 45.6567 104.904 45.8707 106.267 46.6759C107.63 47.4811 108.629 48.7652 109.547 50.0545C116.843 60.2975 120.657 72.7826 124.07 84.8703Z" fill="#252525"/>
<path d="M108.557 65.6993C108.276 60.4606 107.932 54.9977 105.297 50.4571C104.72 49.4634 103.977 48.4799 102.903 48.0722C98.1931 46.2886 101.019 54.3683 101.703 56.1035C103.158 59.8185 105.513 63.1155 108.557 65.6993Z" fill="white"/>
<path d="M99.3851 47.6288C98.6258 50.0656 98.4802 52.6518 98.9614 55.1581C100.325 62.1855 102.612 69.6817 103.526 76.7804C105.632 66.8993 104.102 55.6575 99.4872 46.6682C99.4817 46.9908 99.4475 47.3122 99.3851 47.6288Z" fill="#6C63FF"/>
<path opacity="0.4" d="M99.3851 47.6288C98.6258 50.0656 98.4802 52.6518 98.9614 55.1581C100.325 62.1855 102.612 69.6817 103.526 76.7804C105.632 66.8993 104.102 55.6575 99.4872 46.6682C99.4817 46.9908 99.4475 47.3122 99.3851 47.6288Z" fill="black"/>
<path d="M102.438 31.2757C102.438 31.2757 98.0527 35.322 95.5792 35.0748C93.1056 34.8277 94.2084 29.8005 94.2084 29.8005C94.2084 29.8005 99.7349 29.3138 102.438 31.2757Z" fill="#6C63FF"/>
<path opacity="0.2" d="M102.438 31.2757C102.438 31.2757 98.0527 35.322 95.5792 35.0748C93.1056 34.8277 94.2084 29.8005 94.2084 29.8005C94.2084 29.8005 99.7349 29.3138 102.438 31.2757Z" fill="black"/>
<path d="M94.591 51.7754C99.3843 49.0131 100.3 41.6384 96.6357 35.3037C92.9716 28.9689 86.1155 26.073 81.3222 28.8353C76.5288 31.5977 75.6134 38.9724 79.2775 45.3071C82.9415 51.6418 89.7976 54.5378 94.591 51.7754Z" fill="#F9B499"/>
<path d="M85.0058 53.5224L84.8833 52.758C85.0771 53.0211 85.3241 53.2407 85.6082 53.4026L85.644 52.7401C85.7649 52.8643 85.9156 52.9557 86.0817 53.0056C86.2479 53.0556 86.424 53.0624 86.5936 53.0255C86.932 52.9463 87.2541 52.8092 87.5457 52.6204C87.7934 52.496 88.0132 52.3227 88.1915 52.1108C88.2776 52.0043 88.3294 51.8744 88.3404 51.738C88.3513 51.6017 88.3208 51.4652 88.2528 51.3464L89.062 52.0955L88.6025 50.7451L89.1692 51.3336C89.353 51.5494 89.5811 51.7231 89.838 51.8432C89.9677 51.8986 90.1115 51.9117 90.2491 51.8806C90.3866 51.8495 90.5108 51.7758 90.6038 51.67C90.8591 51.3107 90.54 50.8317 90.2107 50.5412C89.4108 49.8501 88.4617 49.353 87.4375 49.0886C86.4132 48.8243 85.3416 48.8 84.3064 49.0175C83.9311 49.0965 82.9305 49.3029 82.7467 49.6876C82.6216 49.9424 82.9433 50.689 83.0505 50.9616C83.2564 51.4674 83.5285 51.9438 83.8597 52.3783C84.0435 52.6025 84.9803 53.288 85.0058 53.5224Z" fill="#252525"/>
<path d="M81.2866 36.1704C81.7461 37.2482 82.4277 38.3184 83.4972 38.8C84.1916 39.1108 84.9752 39.1414 85.7359 39.1414C86.6498 39.1414 87.5628 39.1083 88.4749 39.042C89.7513 40.4281 90.8464 41.8881 91.556 43.6284C92.2503 43.2156 93.0442 42.678 93.7411 42.2652C93.0212 40.7033 92.4163 39.0318 91.699 37.4725C93.6875 38.9325 96.549 39.2713 98.8694 38.4382C97.3531 35.2888 95.4463 32.3586 92.9625 29.9075L81.2866 36.1704Z" fill="#252525"/>
<path d="M92.5643 38.7185C91.9296 37.8604 91.4064 36.9255 91.0072 35.9361C90.7902 35.4035 91.1552 34.6901 91.3977 34.1678C91.5118 33.9018 91.684 33.6647 91.9017 33.4738C92.1195 33.2829 92.3773 33.143 92.6562 33.0645C92.9232 33.0351 93.1916 33.106 93.4092 33.2632C94.3971 34.2467 94.6651 35.7246 94.8132 37.1107C94.8949 37.6708 94.8949 38.2399 94.8132 38.8C94.73 39.3658 94.4275 39.8764 93.9708 40.2218C93.4339 39.7888 92.9604 39.2827 92.5643 38.7185Z" fill="#F7B595"/>
<path d="M95.5713 30.7484C95.5713 30.7484 100.227 30.5394 102.438 31.2758C102.438 31.2758 100.843 28.2182 93.593 28.3329C86.3434 28.4475 95.5713 30.7484 95.5713 30.7484Z" fill="#6C63FF"/>
<path d="M95.5713 30.7483C87.635 31.7497 80.1276 37.5897 77.8302 45.2388C77.0925 44.984 76.513 44.2756 75.9106 43.7737C74.0982 42.2678 71.5353 41.1136 71.3005 38.7719C70.9227 35.0035 71.8697 31.2426 72.8066 27.5735C75.104 25.558 77.5826 23.1298 80.5871 22.5412C84.1302 21.8507 87.6937 23.3566 90.9867 24.8344C92.24 25.3975 93.2305 26.5033 94.0116 27.6015C94.152 27.8028 95.7015 30.7305 95.5713 30.7483Z" fill="#6C63FF"/>
<path opacity="0.3" d="M95.5713 30.7483C87.635 31.7497 80.1276 37.5897 77.8302 45.2388C77.0925 44.984 76.513 44.2756 75.9106 43.7737C74.0982 42.2678 71.5353 41.1136 71.3005 38.7719C70.9227 35.0035 71.8697 31.2426 72.8066 27.5735C75.104 25.558 77.5826 23.1298 80.5871 22.5412C84.1302 21.8507 87.6937 23.3566 90.9867 24.8344C92.24 25.3975 93.2305 26.5033 94.0116 27.6015C94.152 27.8028 95.7015 30.7305 95.5713 30.7483Z" fill="white"/>
<path d="M90.9867 24.837C87.6938 23.3566 84.1302 21.8507 80.5871 22.5438C79.0224 22.8495 77.6031 23.6572 76.2757 24.6433C75.5285 25.6609 74.8692 26.7401 74.305 27.8691C73.044 30.4426 72.4007 33.4059 73.0057 36.2087C73.6924 39.3809 75.8417 41.962 78.1417 44.3164C79.8494 39.6 83.5406 35.6532 88.0282 33.2199C86.95 29.9978 85.6641 26.8487 84.1787 23.7923C86.4149 24.6416 88.6391 25.5054 90.8514 26.3836C91.9669 26.8295 93.0876 27.2881 94.1546 27.8385C94.0857 27.7162 94.0372 27.6321 94.0167 27.6041C93.2305 26.5059 92.2401 25.4001 90.9867 24.837Z" fill="#6C63FF"/>
<path d="M84.1787 23.7924C85.6641 26.8488 86.9499 29.9979 88.0281 33.2199C90.3674 31.9377 92.9254 31.1013 95.5713 30.7535C95.681 30.7382 94.5502 28.58 94.1494 27.8437C93.0824 27.2933 91.9618 26.8245 90.8463 26.3888C88.6374 25.5072 86.4149 24.6417 84.1787 23.7924Z" fill="#6C63FF"/>
<path opacity="0.2" d="M83.1424 36.8534C81.9963 34.4175 80.0307 32.4683 77.986 30.7127C77.1207 29.9661 76.1558 29.2145 75.0173 29.1125C74.0932 29.031 73.0083 29.4259 72.582 30.2489C74.5323 31.1994 76.2349 32.0886 77.9682 33.4696C78.8233 34.1525 79.6504 34.871 80.5591 35.4825C80.9854 35.7679 82.9791 36.5017 83.1424 36.8534Z" fill="black"/>
<path d="M75.9106 43.7737L76.6407 49.6672C76.6407 49.6672 78.499 47.4148 78.9228 42.4717C78.9228 42.4717 77.0211 42.5405 75.9106 43.7737Z" fill="#6C63FF"/>
<path d="M89.588 32.5498C87.6411 34.4257 85.3846 35.9522 82.9178 37.0623C80.9625 35.1564 78.7264 32.8378 76.1839 31.8313C75.5282 31.5811 74.8603 31.3642 74.1826 31.1816L71.9312 30.542C71.8716 29.1079 72.1332 27.6786 72.697 26.3582C73.1462 25.2931 74.4557 24.6281 75.3798 23.9351C77.4373 22.4063 80.8349 22.0674 83.3901 22.3578C84.5184 23.9911 89.4323 31.0618 89.8049 32.0835C89.8024 31.9842 89.5956 32.6594 89.588 32.5498Z" fill="#6C63FF"/>
<path opacity="0.3" d="M89.588 32.5498C87.6411 34.4257 85.3846 35.9522 82.9178 37.0623C80.9625 35.1564 78.7264 32.8378 76.1839 31.8313C75.5282 31.5811 74.8603 31.3642 74.1826 31.1816L71.9312 30.542C71.8716 29.1079 72.1332 27.6786 72.697 26.3582C73.1462 25.2931 74.4557 24.6281 75.3798 23.9351C77.4373 22.4063 80.8349 22.0674 83.3901 22.3578C84.5184 23.9911 89.4323 31.0618 89.8049 32.0835C89.8024 31.9842 89.5956 32.6594 89.588 32.5498Z" fill="white"/>
<path d="M83.3976 22.368C83.0275 22.3273 82.6318 22.2992 82.2387 22.2839C81.5696 22.3756 80.9078 22.5135 80.2578 22.6967C77.7562 23.4025 75.4078 24.9033 74.0778 27.1328C75.9861 25.3654 78.3345 24.1414 80.8781 23.5885C78.2744 25.3186 75.5839 27.1557 74.0063 29.8387C77.0696 29.9483 79.4206 32.481 81.3963 34.8226C81.9973 35.5127 82.5613 36.2339 83.0862 36.9833C85.4873 35.8801 87.6852 34.3813 89.5878 32.5498C89.5878 32.6517 89.7742 32.0759 89.8074 32.0835C89.4092 31.0261 84.5208 23.9962 83.3976 22.368Z" fill="#6C63FF"/>
<path d="M103.426 51.117C101.415 50.5743 99.3215 50.3399 97.2437 50.1641C97.6521 45.3008 98.0588 40.4367 98.4638 35.5717C99.7402 35.4418 100.965 35.4392 102.193 35.8112C103.413 40.6091 103.71 46.1739 103.426 51.117Z" fill="white"/>
<path d="M101.09 41.9136C100.985 44.3623 100.947 46.8924 101.856 49.1652C102.765 51.4381 104.886 53.4051 107.342 53.3949L104.072 38.7796C103.86 37.8369 103.643 36.8737 103.148 36.0431C102.109 34.2926 100.763 34.2442 100.998 36.41C101.168 38.2396 101.199 40.0794 101.09 41.9136Z" fill="#402C35"/>
<path d="M102.451 35.5386C102.86 41.1916 102.899 46.8653 102.568 52.5235C109.925 60.5395 115.482 69.9696 119.27 80.1616C123.058 90.3536 125.512 100.981 127.949 111.573C133.889 112.241 139.102 108.877 143.776 105.157C148.45 101.437 152.84 97.0854 158.454 95.0317C156.815 87.7979 155.179 80.3145 152.371 73.4553C150.295 68.4153 147.84 63.4009 143.98 59.5483C140.475 56.0525 136.008 53.7083 131.615 51.4202C121.953 46.3879 112.102 40.5709 102.451 35.5386Z" fill="#6C63FF"/>
<mask id="mask0_406_5" style="mask-type:luminance" maskUnits="userSpaceOnUse" x="102" y="35" width="52" height="46">
<path style="mix-blend-mode:multiply" d="M152.371 73.4553C150.296 68.4153 147.84 63.4009 143.981 59.5483C140.476 56.0525 136.009 53.7083 131.615 51.4202C121.966 46.3879 112.116 40.5709 102.464 35.5386C102.745 39.4013 102.85 43.27 102.78 47.1447C103.51 48.3193 104.248 49.4939 104.983 50.6813C106.466 53.0943 108.764 54.8779 111.018 56.613C113.68 58.6642 116.378 60.7357 119.442 62.1091C121.813 63.1741 124.356 63.7984 126.811 64.6571C134.893 67.5253 141.838 72.9074 146.625 80.0113C148.885 78.6523 151.084 77.2025 153.221 75.6618C152.943 74.9229 152.66 74.184 152.371 73.4553Z" fill="url(#paint0_linear_406_5)"/>
</mask>
<g mask="url(#mask0_406_5)">
<path opacity="0.1" d="M152.371 73.4553C150.296 68.4153 147.84 63.4009 143.981 59.5483C140.476 56.0525 136.009 53.7083 131.615 51.4202C121.966 46.3879 112.116 40.5709 102.464 35.5386C102.745 39.4013 102.85 43.27 102.78 47.1447C103.51 48.3193 104.248 49.4939 104.983 50.6813C106.466 53.0943 108.764 54.8779 111.018 56.613C113.68 58.6642 116.378 60.7357 119.442 62.1091C121.813 63.1741 124.356 63.7984 126.811 64.6571C134.893 67.5253 141.838 72.9074 146.625 80.0113C148.885 78.6523 151.084 77.2025 153.221 75.6618C152.943 74.9229 152.66 74.184 152.371 73.4553Z" fill="white"/>
</g>
<path d="M113.348 65.9336C114.017 65.3986 114.073 64.4685 113.729 63.7398C113.384 63.0111 112.723 62.4352 112.074 61.8798C111.426 61.3243 110.762 60.7383 110.43 60.0121C110.099 59.2859 110.175 58.3508 110.847 57.8259C110.889 57.7917 110.944 57.7748 110.999 57.7786C111.053 57.7824 111.105 57.8065 111.143 57.8463C110.923 58.4884 110.704 59.1891 111.007 59.8057C111.357 60.5115 112.261 60.8555 112.998 61.2886C114.665 62.2671 115.699 64.1857 114.969 65.8011C114.902 65.9889 114.787 66.1562 114.637 66.2874C114.486 66.4185 114.304 66.509 114.109 66.5503C113.685 66.5987 113.034 66.1859 113.348 65.9336Z" fill="#252525"/>
<path d="M109.764 67.4038C110.825 68.95 112.366 70.105 114.15 70.6907C114.632 70.8729 115.151 70.9376 115.663 70.8793C115.918 70.8457 116.16 70.7456 116.364 70.589C116.568 70.4324 116.727 70.2249 116.825 69.9875C117.032 69.3708 116.679 68.7135 116.33 68.1682C115.639 67.0828 114.916 66.0168 114.162 64.9705L109.764 67.4038Z" fill="#6C63FF"/>
<path opacity="0.3" d="M109.764 67.4038C110.825 68.95 112.366 70.105 114.15 70.6907C114.632 70.8729 115.151 70.9376 115.663 70.8793C115.918 70.8457 116.16 70.7456 116.364 70.589C116.568 70.4324 116.727 70.2249 116.825 69.9875C117.032 69.3708 116.679 68.7135 116.33 68.1682C115.639 67.0828 114.916 66.0168 114.162 64.9705L109.764 67.4038Z" fill="white"/>
<path d="M124.1 65.9337C123.589 66.3516 121.833 67.1007 121.233 66.8331C120.761 66.6242 120.682 65.9031 120.169 65.7069C119.188 65.3374 117.999 66.1503 117.131 66.4713C116.35 66.7567 114.162 66.3745 114.305 67.3707C114.486 68.6447 117.2 68.8409 118.203 68.8002C117.001 69.2945 115.88 69.9213 114.683 70.3544C113.2 69.7557 112.455 68.9327 110.762 69.1416C110.492 70.2347 112.508 70.7443 113.118 71.417C113.478 71.8145 113.573 72.2527 114.124 72.403C114.561 72.5202 115.717 72.403 116.166 72.2349C116.421 73.1623 117.172 73.1318 117.968 73.1343C118.374 73.1343 118.555 73.6821 118.949 73.7891C119.268 73.8783 119.671 73.6821 120.016 73.7051C121.915 73.8376 122.941 71.8145 124.028 71.1724C124.771 70.7316 125.943 69.8984 126.732 69.7149C126.441 68.7314 124.159 66.1273 124.1 65.9337Z" fill="#F9B499"/>
<g opacity="0.3">
<path d="M114.162 64.9705L109.764 67.4038C109.964 67.6947 110.181 67.973 110.415 68.237C111.848 67.3979 113.311 66.6139 114.803 65.8852C114.591 65.5794 114.379 65.2711 114.162 64.9705Z" fill="white"/>
</g>
<path d="M128.731 69.6562C127.911 70.0257 126.977 70.5047 126.158 70.8716C125.226 69.1084 124.258 67.5057 123.327 65.7425L126.002 64.6902C127.028 66.2699 127.705 68.0816 128.731 69.6562Z" fill="white"/>
<path d="M142.415 67.4471C138.2 69.8531 133.417 71.09 128.562 71.0296C127.112 68.9275 125.443 66.9731 124.271 64.7054C126.704 63.0034 129.033 61.1579 131.245 59.1788C135.794 60.3407 140.297 63.2658 142.415 67.4471Z" fill="#252525"/>
<path d="M155.993 71.6335L151.322 60.5956C150.066 57.6221 148.736 54.5492 146.324 52.4013C143.26 49.68 138.982 48.8901 135.347 46.9817C129.841 44.0846 125.964 38.665 120.368 35.9438C114.461 33.0722 107.679 33.6633 101.136 34.257C103.663 39.0829 101.478 45.2338 103.551 50.2711C104.955 53.6778 108.161 56.0831 111.61 57.4055C115.058 58.7279 118.783 59.0821 122.451 59.4898C126.119 59.8975 129.854 60.3765 133.211 61.8875C139.812 64.8482 144.057 71.2666 147.939 77.3614C150.839 76.0416 153.933 74.0337 155.993 71.6335Z" fill="#6C63FF"/>
<path opacity="0.4" d="M155.993 71.6335L151.322 60.5956C150.066 57.6221 148.736 54.5492 146.324 52.4013C143.26 49.68 138.982 48.8901 135.347 46.9817C129.841 44.0846 125.964 38.665 120.368 35.9438C114.461 33.0722 107.679 33.6633 101.136 34.257C103.663 39.0829 101.478 45.2338 103.551 50.2711C104.955 53.6778 108.161 56.0831 111.61 57.4055C115.058 58.7279 118.783 59.0821 122.451 59.4898C126.119 59.8975 129.854 60.3765 133.211 61.8875C139.812 64.8482 144.057 71.2666 147.939 77.3614C150.839 76.0416 153.933 74.0337 155.993 71.6335Z" fill="black"/>
<g opacity="0.2">
<path d="M108.429 51.5655C110.403 50.6339 112.257 49.4678 113.951 48.0926C112.562 46.9154 111.824 45.1649 111.143 43.4807L107.176 33.7983C105.17 33.8799 103.15 34.0531 101.154 34.2417C103.681 39.0676 101.496 45.2185 103.569 50.2558C104.973 53.6625 108.179 56.0678 111.628 57.3902C113.818 58.2234 116.121 58.6642 118.451 58.998C114.724 57.0717 111.273 54.7479 108.429 51.5655Z" fill="black"/>
</g>
<path d="M100.587 33.5333C100.695 37.8445 100.575 43.3201 101.825 47.4479C103.076 51.5756 105.524 54.4039 109.376 56.3659C107.937 54.7657 107.293 52.4369 107.237 50.2889C108.738 50.057 110.277 49.2162 111.431 48.2327C109.389 43.4501 107.602 38.3465 106.596 33.2479L100.587 33.5333Z" fill="#6C63FF"/>
<path opacity="0.3" d="M100.587 33.5333C100.695 37.8445 100.575 43.3201 101.825 47.4479C103.076 51.5756 105.524 54.4039 109.376 56.3659C107.937 54.7657 107.293 52.4369 107.237 50.2889C108.738 50.057 110.277 49.2162 111.431 48.2327C109.389 43.4501 107.602 38.3465 106.596 33.2479L100.587 33.5333Z" fill="white"/>
<path opacity="0.2" d="M116.506 54.6511C121.08 55.362 125.67 53.8867 130.232 53.1045C134.793 52.3222 140.006 52.3961 143.391 55.5454C140.072 54.7352 136.128 53.9198 132.708 54.1517C131.362 54.2434 130.032 54.4982 128.7 54.7148C124.588 55.3875 120.414 56.0958 116.506 54.6511Z" fill="black"/>
<path opacity="0.2" d="M138.865 50.6253C136.879 50.0894 134.796 50.0145 132.777 50.4062C129.369 51.0712 126.255 53.0485 122.791 53.237C127.324 52.3758 132.2 51.7235 136.736 50.8623C137.486 50.7196 138.155 50.3374 138.865 50.6253Z" fill="black"/>
<path opacity="0.2" d="M147.069 69.7658C144.942 66.0455 142.028 62.8327 138.53 60.351C140.572 61.1764 142.401 62.452 143.88 64.0824C145.358 65.7127 146.449 67.6556 147.069 69.7658Z" fill="black"/>
<mask id="mask1_406_5" style="mask-type:luminance" maskUnits="userSpaceOnUse" x="33" y="73" width="62" height="77">
<path style="mix-blend-mode:multiply" d="M61.4983 73.1597L33.521 149.115H94.6421L78.7364 85.3212L61.4983 73.1597Z" fill="url(#paint1_linear_406_5)"/>
</mask>
<g mask="url(#mask1_406_5)">
<path opacity="0.5" d="M61.4983 73.1597L33.521 149.115H94.6421L78.7364 85.3212L61.4983 73.1597Z" fill="#E5E5E5"/>
</g>
<path d="M87.4999 89.3879C86.5995 90.1075 85.5641 90.6402 84.4546 90.955" stroke="#F7A48B" stroke-miterlimit="10"/>
<path d="M89.463 89.8262C88.479 91.0307 87.2825 92.0454 85.9326 92.8201" stroke="#F7A48B" stroke-miterlimit="10"/>
<path d="M87.9849 93.4417C87.9849 93.4417 89.7947 92.3996 90.4431 90.4172" stroke="#F7A48B" stroke-miterlimit="10"/>
<defs>
<linearGradient id="paint0_linear_406_5" x1="127.858" y1="60.8376" x2="133.246" y2="83.6491" gradientUnits="userSpaceOnUse">
<stop stop-color="white"/>
<stop offset="1"/>
</linearGradient>
<linearGradient id="paint1_linear_406_5" x1="80.4595" y1="83.0739" x2="71.2787" y2="120.234" gradientUnits="userSpaceOnUse">
<stop stop-color="white"/>
<stop offset="1"/>
</linearGradient>
</defs>
</svg>
